# xmcd
#
# Track frame offsets:
#	150
#	12922
#	25767
#	38050
#	50807
#	62277
#	75175
#	87325
#	100082
#	112532
#	123700
#	136147
#	148375
#	159922
#	173422
#	187300
#	199892
#	214480
#
# Disc length: 3044 seconds
#
# Revision: 3
# Processed by: cddbd v1.5.2PL0 Copyright (c) Steve Scherf et al.
# Submitted via: EasyCDDAExtractor 11.1.0.1
#
DISCID=ee0be212
DTITLE=Various Artist - Woke Up This Mornin' - Vol 2
DYEAR=1993
DGENRE=Blues
TTITLE0=Muddy Waters - Got My Mojo Working
TTITLE1=Chuck Berry - Route 66
TTITLE2=Little Walter - Key To The Highway
TTITLE3=Betty James - I'm A Little Mixed Up
TTITLE4=Clarence 'Gatemouth' Brown - Okie Dokie Stomp
TTITLE5=Sonny Parker - She Sets My Soul On Fire
TTITLE6=Larry Davis - Texas Flood
TTITLE7=Big Mama Thornton - Hound Dog
TTITLE8=Joe Turner with Pete Johnson - Rebecca
TTITLE9=Johnny Ace - Pledging My Love
TTITLE10=Howlin' Wolf - Spoonful
TTITLE11=John Lee Hooker - Walkin' The Boogie
TTITLE12=Sonny Boy Williamson - Don't Start Me Talkin'
TTITLE13=Albert King - Bad Luck Blues
TTITLE14=Bo Diddley - Before You Accuse me
TTITLE15=Jackie Brenston - Rocket 88
TTITLE16=Eddie Boyd - Third Degree
TTITLE17=Koko Taylor - What Kind Of Man Is This
EXTD=
EXTT0=
EXTT1=
EXTT2=
EXTT3=
EXTT4=
EXTT5=
EXTT6=
EXTT7=
EXTT8=
EXTT9=
EXTT10=
EXTT11=
EXTT12=
EXTT13=
EXTT14=
EXTT15=
EXTT16=
EXTT17=
PLAYORDER=
